<svg id="Layer_1" data-name="Layer 1" xmlns="http://www.w3.org/2000/svg" viewBox="0 0 107.73154 45.3731"><defs><style>.cls-1{fill:#004185;}.cls-2{fill:#db1830;}</style></defs><path class="cls-1" d="M106.30012,33.94915a1.431,1.431,0,1,1,1.43142-1.43142A1.43324,1.43324,0,0,1,106.30012,33.94915Zm0-2.64081a1.20983,1.20983,0,1,0,1.21026,1.20939A1.21074,1.21074,0,0,0,106.30012,31.30834Z"/><path class="cls-1" d="M105.78946,31.78722h.64518a.58226.58226,0,0,1,.41793.1454.43539.43539,0,0,1,.12016.31171v.00436a.43561.43561,0,0,1-.34349.43883l.39094.54766h-.30213l-.35568-.50413h-.31824v.50413h-.25467Zm.6269.71832c.182,0,.29777-.09578.29777-.24205v-.00436c0-.155-.11188-.24031-.29995-.24031h-.37005v.48672Z"/><path class="cls-1" d="M.00424,31.08718h10.594V33.8359H3.07409v2.84922H9.69538V39.434H3.07409v2.94935h7.62446V45.1323H.00424Z"/><path class="cls-1" d="M12.97115,31.08718h3.33063l3.69193,5.93906,3.69193-5.93906h3.33063V45.1323H23.94642V35.96273l-3.95271,5.9994h-.08033l-3.91255-5.93906V45.1323H12.97115Z"/><path class="cls-1" d="M29.82827,31.08718H35.5667c3.35081,0,5.37733,1.98635,5.37733,4.85556v.04017c0,3.25049-2.5281,4.93589-5.67828,4.93589H32.9181v4.2135H29.82827Zm5.5378,7.08271a2.17493,2.17493,0,0,0,2.448-2.12683v-.04017c0-1.38445-.9632-2.12683-2.50811-2.12683H32.9181v4.29383Z"/><path class="cls-1" d="M41.99461,38.1499v-.04016a7.46738,7.46738,0,0,1,14.928-.04017v.04017a7.46738,7.46738,0,0,1-14.928.04016Zm11.69767,0v-.04016a4.26727,4.26727,0,0,0-4.25386-4.41433,4.20051,4.20051,0,0,0-4.2135,4.37416v.04017a4.26706,4.26706,0,0,0,4.25366,4.41413A4.2005,4.2005,0,0,0,53.69228,38.1499Z"/><path class="cls-1" d="M57.1101,31.08718h3.31064l2.90938,9.41017,3.15018-9.41021h2.6484l3.15018,9.41021,2.90938-9.41017h3.23031L73.62316,45.1323H70.9346l-3.17017-9.04911L64.59407,45.1323H61.90551Z"/><path class="cls-1" d="M79.83574,31.08718H90.42993V33.8359H82.90578v2.84922h6.6213V39.434h-6.6213v2.94935h7.62446V45.1323H79.83574Z"/><path class="cls-1" d="M92.80265,31.08718h6.42066a5.5971,5.5971,0,0,1,4.09319,1.42442,4.409,4.409,0,0,1,1.204,3.21033v.04016a4.36164,4.36164,0,0,1-3.0097,4.354l3.43095,5.01623h-3.61159l-3.0097-4.49446H95.89268V45.1323h-3.09Zm6.22,6.82193c1.50494,0,2.36763-.80273,2.36763-1.98635v-.04017c0-1.3243-.92284-2.00653-2.42779-2.00653H95.89268v4.033Z"/><path class="cls-2" d="M104.9207,3.75691C83.61525,8.77969,83.785-1.78536,65.7338.43885l-9.24418,4.294c19-3.37382,19.40125,9.54929,45.07677,2.28182,1.16964-.33107,2.279-.64988,3.35431-.9239Z"/><path class="cls-2" d="M104.9207,8.7542A74.20894,74.20894,0,0,0,93.73849,11.028c-27.0266,7.59547-26.2993-4.97428-46.254-2.08658l-9.22913,4.294c19.52831-2.63838,20.33084,9.578,46.8697,2.2818,8.6519-2.37863,14.78122-3.03882,19.7956-2.73484Z"/><path class="cls-2" d="M104.9207,18.09709c-6.59551-1.48475-14.23967-2.36632-28.09034,1.43346-27.42309,7.52324-26.98672-4.79411-47.565-2.08656l-9.22746,4.294c19.93961-2.5592,20.94278,9.50574,47.99291,2.28182,20.06092-5.35741,26.983-1.45723,36.8899.60229Z"/></svg>